<svg xmlns="http://www.w3.org/2000/svg" viewBox="0 0 1200 300">
  <defs>
    <style>
      @import url('https://fonts.googleapis.com/css2?family=Inter:wght@400;600;700&amp;family=JetBrains+Mono:wght@400;600&amp;display=swap');
    </style>
  </defs>
  
  <!-- Background -->
  <rect width="1200" height="300" fill="#18160F"/>
  
  <!-- Subtle grid pattern -->
  <g opacity="0.03">
    <line x1="0" y1="60" x2="1200" y2="60" stroke="white" stroke-width="1"/>
    <line x1="0" y1="120" x2="1200" y2="120" stroke="white" stroke-width="1"/>
    <line x1="0" y1="180" x2="1200" y2="180" stroke="white" stroke-width="1"/>
    <line x1="0" y1="240" x2="1200" y2="240" stroke="white" stroke-width="1"/>
  </g>
  
  <!-- Logo mark (scaled from favicon) -->
  <g transform="translate(80, 100) scale(3)">
    <rect width="32" height="32" rx="7" fill="#1D4ED8"/>
    <polygon points="0,0 20,0 20,12 28,12 28,20 32,20 32,32 12,32 12,20 4,20 4,12 0,12" fill="white"/>
  </g>

  <!-- ATLAST Protocol text -->
  <text x="210" y="135" fill="white" font-family="Inter, sans-serif" font-weight="700" font-size="42" letter-spacing="0.02em">ATLAST Protocol</text>
  
  <!-- Tagline -->
  <text x="210" y="175" fill="#9CA3AF" font-family="Inter, sans-serif" font-weight="400" font-size="22">Make AI Agent Work Verifiable.</text>
  
  <!-- Badges -->
  <g transform="translate(210, 195)">
    <!-- ECP badge -->
    <rect x="0" y="0" width="60" height="24" rx="4" fill="#1D4ED8" opacity="0.2"/>
    <text x="30" y="16" fill="#93C5FD" font-family="JetBrains Mono, monospace" font-weight="600" font-size="11" text-anchor="middle">ECP</text>
    
    <!-- Open Source badge -->
    <rect x="70" y="0" width="100" height="24" rx="4" fill="#059669" opacity="0.2"/>
    <text x="120" y="16" fill="#6EE7B7" font-family="JetBrains Mono, monospace" font-weight="600" font-size="11" text-anchor="middle">Open Source</text>
    
    <!-- MIT badge -->
    <rect x="180" y="0" width="45" height="24" rx="4" fill="white" opacity="0.1"/>
    <text x="202" y="16" fill="#9CA3AF" font-family="JetBrains Mono, monospace" font-weight="600" font-size="11" text-anchor="middle">MIT</text>
  </g>
  
  <!-- Right side: abstract chain visualization -->
  <g transform="translate(850, 80)" opacity="0.15">
    <circle cx="0" cy="0" r="8" fill="#1D4ED8"/>
    <line x1="8" y1="0" x2="50" y2="30" stroke="#1D4ED8" stroke-width="2"/>
    <circle cx="58" cy="34" r="8" fill="#1D4ED8"/>
    <line x1="66" y1="34" x2="108" y2="14" stroke="#1D4ED8" stroke-width="2"/>
    <circle cx="116" cy="10" r="8" fill="#1D4ED8"/>
    <line x1="124" y1="10" x2="166" y2="50" stroke="#1D4ED8" stroke-width="2"/>
    <circle cx="174" cy="54" r="8" fill="#1D4ED8"/>
    <line x1="182" y1="54" x2="224" y2="24" stroke="#1D4ED8" stroke-width="2"/>
    <circle cx="232" cy="20" r="8" fill="#1D4ED8"/>
    
    <circle cx="58" cy="94" r="6" fill="#059669"/>
    <line x1="64" y1="94" x2="110" y2="74" stroke="#059669" stroke-width="1.5"/>
    <circle cx="116" cy="70" r="6" fill="#059669"/>
    <line x1="122" y1="70" x2="168" y2="100" stroke="#059669" stroke-width="1.5"/>
    <circle cx="174" cy="104" r="6" fill="#059669"/>
  </g>
</svg>
